<svg version="1.1" xmlns="http://www.w3.org/2000/svg" xmlns:xlink="http://www.w3.org/1999/xlink" x="0px" y="0px" viewBox="0 0 1000 1000" enable-background="new 0 0 1000 1000" xml:space="preserve">
<g fill="#61DAFB">
	<path d="M805.8,872.4c-20.6,0-38.2-17.6-38.2-39.2V794h38.2c60.8,0,76.4-21.6,76.4-21.6v60.8c0,21.6-17.6,39.2-38.2,39.2H805.8L805.8,872.4z M156,872.4c-20.6,0-38.2-17.6-38.2-39.2v-60.8c0,0,15.7,21.6,76.4,21.6h38.2v39.2c0,21.6-17.6,39.2-38.2,39.2H156L156,872.4z M990,456.9c0-51-39.2-91.1-88.2-91.1c-38.2,0-69.6,24.5-82.3,59.8l-42.1,97c-2.9-2-130.3-43.1-274.4-43.1c-144.1,0-277.3,41.2-280.3,43.1l-40.2-91.1c-10.8-38.2-44.1-65.7-84.3-65.7c-49,0-88.2,41.2-88.2,91.1c0,42.1,27.4,77.4,64.7,88.2l16.7,146c17.6,61.7,102.9,63.7,102.9,63.7h611.5c0,0,85.3-2,102.9-63.7l16.7-146C962.6,534.3,990,499,990,456.9L990,456.9z M98.2,317.7c57.8,0,109.8,39.2,127.4,97l19.6,44.1c37.2-13.7,172.5-27.4,256.8-27.4c82.3,0,215.6,12.7,251.9,26.5l21.6-51C795,354,845,317.7,900.8,317.7c3.9,0,7.8,1,11.8,1v-1c0-104.9-82.3-190.1-184.2-190.1H270.7c-101.9,0-184.2,85.3-184.2,190.1v1C90.4,318.7,94.3,317.7,98.2,317.7L98.2,317.7z"/>
</g>
</svg>